<svg xmlns="http://www.w3.org/2000/svg" xmlns:xlink="http://www.w3.org/1999/xlink" width="512px" height="512px" viewBox="0 0 500 500">
    <g id="68592d0c-e48d-4f2c-8a57-4cff744a815c">
<g style="">
		<g id="68592d0c-e48d-4f2c-8a57-4cff744a815c-child-0">
<path style="stroke: rgb(193,193,193); stroke-width: 0; stroke-dasharray: none; stroke-linecap: butt; stroke-dashoffset: 0; stroke-linejoin: miter; stroke-miterlimit: 4; fill: rgb(245,210,55); fill-rule: nonzero; opacity: 1;" transform="matrix(0.985619 0 0 0.976527 247.684645 250.018754) matrix(1 0 0 1 0 0)  translate(-256, -256.015954)" d="M 229.44 510.46 C 137.91 500.46 60.25 436.40 37.99 352.56 C 33.17 334.40 31.72 323.28 31.61 303.50 C 31.51 287.09 31.68 285.19 33.54 282.04 C 36.08 277.70 40.99 274.77 45.92 274.64 L 49.71 274.54 L 50.32 257.02 C 51.17 232.74 54.97 210.20 61.99 187.93 C 66.81 172.62 70.21 169.00 79.91 168.77 L 84.70 168.67 L 86.91 161.08 C 90.42 149.04 98.37 130.15 105.54 116.80 C 116.19 96.99 135.29 69.48 141.81 64.56 C 146.56 60.97 152.55 61.33 163.85 65.89 C 169.45 68.15 174.18 70.00 174.36 70.00 C 174.53 70.00 177.76 66.10 181.54 61.34 C 197.24 41.53 226.20 15.77 246.54 3.52 C 256.51 -2.49 260.15 -1.35 280.89 14.24 C 301.24 29.54 319.42 47.00 332.44 63.75 C 335.11 67.19 337.44 70.00 337.63 70.00 C 337.81 70.00 342.55 68.15 348.15 65.89 C 359.80 61.19 365.56 60.94 370.64 64.92 C 374.44 67.89 388.92 87.30 396.88 100.09 C 409.21 119.90 422.30 148.56 425.92 163.68 L 427.12 168.66 L 432.00 168.77 C 441.80 169.00 445.18 172.59 450.01 187.93 C 457.03 210.20 460.83 232.74 461.68 257.02 L 462.29 274.54 L 466.08 274.64 C 471.01 274.77 475.92 277.70 478.46 282.04 C 480.32 285.19 480.49 287.09 480.39 303.50 C 480.33 315.19 479.70 325.01 478.62 331.50 C 470.48 380.21 446.13 423.35 408.50 455.77 C 359.81 497.70 294.70 517.59 229.44 510.46 M 275.00 480.94 C 287.85 479.76 305.66 476.27 317.00 472.72 C 325.82 469.96 325.81 470.01 319.75 459.32 C 309.11 440.54 289.33 419.31 265.75 401.35 L 256.00 393.93 L 246.25 401.35 C 222.67 419.31 202.89 440.54 192.25 459.32 C 186.19 470.01 186.18 469.96 195.00 472.72 C 219.71 480.46 248.26 483.39 275.00 480.94 M 164.77 447.74 C 175.14 427.60 193.85 405.62 216.88 386.52 L 229.98 375.66 L 220.74 369.49 C 201.08 356.38 168.21 339.22 146.00 330.49 C 131.84 324.92 109.08 317.55 95.33 314.08 C 81.57 310.61 61.98 306.68 61.38 307.28 C 61.17 307.50 61.47 312.36 62.05 318.09 C 67.68 373.17 100.06 422.43 151.00 453.40 C 155.12 455.90 158.72 457.96 159.00 457.97 C 159.28 457.97 161.87 453.37 164.77 447.74 M 361.66 452.98 C 379.33 442.26 398.65 425.62 411.05 410.44 C 428.70 388.84 441.10 363.52 446.97 337.10 C 448.87 328.57 451.38 308.04 450.62 307.28 C 450.02 306.68 430.43 310.61 416.67 314.08 C 402.92 317.55 380.16 324.92 366.00 330.49 C 343.79 339.22 310.92 356.38 291.26 369.49 L 282.02 375.66 L 295.12 386.52 C 318.15 405.63 336.86 427.61 347.23 447.75 C 350.22 453.55 353.00 457.80 353.66 457.56 C 354.30 457.33 357.90 455.26 361.66 452.98 M 261.50 353.40 C 274.72 343.88 298.35 329.35 310.75 323.11 C 314.19 321.39 317.00 319.60 317.00 319.14 C 317.00 317.47 304.34 301.31 297.01 293.62 C 288.60 284.80 275.38 273.24 263.75 264.55 L 256.00 258.76 L 248.25 264.55 C 236.62 273.24 223.40 284.80 214.99 293.62 C 207.66 301.31 195.00 317.47 195.00 319.14 C 195.00 319.60 197.81 321.39 201.25 323.11 C 213.65 329.35 237.28 343.88 250.50 353.40 C 253.25 355.38 255.72 357.00 256.00 357.00 C 256.28 357.00 258.75 355.38 261.50 353.40 M 172.66 298.25 C 175.49 293.99 180.88 286.98 184.65 282.67 C 188.42 278.37 192.81 273.32 194.40 271.45 L 197.30 268.06 L 194.50 263.78 C 182.84 245.98 159.84 228.16 132.50 215.74 C 122.81 211.34 98.74 202.81 92.37 201.53 L 89.25 200.90 L 87.16 209.70 C 81.83 232.14 80.00 246.39 80.00 265.49 L 80.00 279.54 L 97.38 283.75 C 116.03 288.26 143.50 296.95 156.50 302.44 C 160.90 304.30 165.18 305.86 166.01 305.91 C 166.84 305.96 169.84 302.51 172.66 298.25 M 356.58 301.96 C 371.36 295.95 394.27 288.75 414.25 283.86 L 432.00 279.51 L 432.00 265.48 C 432.00 246.39 430.17 232.14 424.84 209.70 L 422.75 200.90 L 419.63 201.53 C 413.26 202.81 389.19 211.34 379.50 215.74 C 352.16 228.16 329.16 245.98 317.50 263.78 L 314.70 268.06 L 317.60 271.45 C 319.19 273.32 323.58 278.37 327.35 282.67 C 331.12 286.98 336.51 293.99 339.34 298.25 C 342.16 302.51 344.97 306.00 345.57 306.00 C 346.18 306.00 351.13 304.18 356.58 301.96 M 236.50 236.16 C 248.82 227.68 252.05 226.00 256.00 226.00 C 257.70 226.00 260.54 226.74 262.30 227.64 C 265.85 229.46 283.76 241.64 288.58 245.52 L 291.66 248.00 L 295.05 243.25 C 296.92 240.64 302.39 234.41 307.21 229.41 L 315.98 220.32 L 310.09 211.41 C 298.76 194.28 279.03 173.10 261.25 159.00 L 256.00 154.83 L 251.75 158.16 C 234.29 171.82 213.16 194.40 201.91 211.41 L 196.02 220.32 L 204.79 229.41 C 209.61 234.41 215.08 240.64 216.95 243.25 L 220.34 248.00 L 223.42 245.52 C 225.11 244.16 231.00 239.94 236.50 236.16 M 177.02 194.47 C 186.12 180.98 197.53 167.69 212.25 153.41 L 226.71 139.39 L 220.10 133.63 C 203.60 119.23 158.06 93.05 154.56 95.95 C 152.48 97.68 141.28 114.73 134.55 126.43 C 125.75 141.72 117.05 162.25 114.59 173.54 C 113.94 176.57 113.96 176.59 121.22 178.93 C 132.44 182.53 151.09 190.75 161.29 196.59 C 166.35 199.49 170.82 201.90 171.22 201.93 C 171.62 201.97 174.22 198.61 177.02 194.47 M 350.72 196.53 C 361.67 190.42 379.79 182.45 390.75 178.93 C 394.74 177.65 398.00 176.10 398.00 175.48 C 398.00 173.19 391.62 155.22 387.54 146.00 C 385.22 140.78 380.58 131.65 377.22 125.73 C 371.02 114.79 358.85 96.64 356.91 95.44 C 355.37 94.49 326.81 109.08 314.45 117.13 C 308.66 120.89 300.75 126.57 296.88 129.74 C 293.00 132.91 288.78 136.35 287.50 137.38 L 285.16 139.27 L 299.68 153.35 C 314.47 167.68 325.87 180.97 334.98 194.47 C 337.78 198.61 340.26 202.00 340.50 202.00 C 340.74 202.00 345.33 199.54 350.72 196.53 M 266.21 116.39 C 275.68 107.50 291.44 95.75 305.00 87.48 C 307.48 85.97 309.68 84.58 309.89 84.39 C 310.65 83.73 304.49 76.35 295.07 66.64 C 285.43 56.71 273.79 46.42 262.25 37.64 L 256.00 32.88 L 249.75 37.64 C 238.21 46.42 226.57 56.71 216.93 66.64 C 207.47 76.39 201.36 83.72 202.11 84.41 C 202.32 84.60 205.48 86.58 209.12 88.79 C 222.22 96.76 241.19 111.26 248.20 118.66 C 250.50 121.08 251.65 121.50 255.91 121.44 C 260.50 121.37 261.37 120.95 266.21 116.39 Z" stroke-linecap="round"/>
</g>
</g>
</g>

  </svg>